<svg width="24" height="24" xmlns="http://www.w3.org/2000/svg">

 <g>
  <title>background</title>
  <rect fill="none" id="canvas_background" height="402" width="582" y="-1" x="-1"/>
 </g>
 <g>
  <title>Layer 1</title>
  <path fill="#929292" id="XMLID_95_" d="m23.5,10c0.276,0 0.5,-0.224 0.5,-0.5l0,-2c0,-0.276 -0.224,-0.5 -0.5,-0.5l-0.5,0l0,-1.5c0,-0.108 -0.035,-0.213 -0.1,-0.3l-1.5,-2c-0.19,-0.252 -0.611,-0.252 -0.801,0l-1.5,2c-0.064,0.087 -0.099,0.192 -0.099,0.3l0,1.5l-2,0l0,-1.5c0,-0.108 -0.035,-0.213 -0.1,-0.3l-1.5,-2c-0.189,-0.252 -0.611,-0.252 -0.801,0l-1.5,2c-0.064,0.087 -0.099,0.192 -0.099,0.3l0,1.5l-1.179,0l0.174,-1.25c0.015,-0.107 -0.005,-0.217 -0.058,-0.312l-1.211,-2.181c-0.076,-0.137 -0.213,-0.231 -0.369,-0.252c-0.155,-0.024 -0.312,0.031 -0.423,0.143l-1.76,1.77c-0.076,0.077 -0.126,0.176 -0.141,0.284l-0.25,1.798l-2.783,0l0,-1.5c0,-0.108 -0.035,-0.213 -0.1,-0.3l-1.5,-2c-0.189,-0.252 -0.611,-0.252 -0.8,0l-1.5,2c-0.065,0.087 -0.1,0.192 -0.1,0.3l0,1.5l-0.5,0c-0.276,0 -0.5,0.224 -0.5,0.5l0,2c0,0.277 0.224,0.5 0.5,0.5l0.5,0l0,4l-0.5,0c-0.276,0 -0.5,0.224 -0.5,0.5l0,2c0,0.277 0.224,0.5 0.5,0.5l0.5,0l0,3.5c0,0.277 0.224,0.5 0.5,0.5l3,0c0.276,0 0.5,-0.223 0.5,-0.5l0,-3.5l1.393,0l-0.42,3.02c-0.019,0.131 0.017,0.265 0.097,0.371c0.08,0.106 0.198,0.175 0.33,0.193l2.972,0.411c0.023,0.004 0.046,0.005 0.069,0.005c0.245,0 0.46,-0.181 0.494,-0.431l0.497,-3.569l2.568,0l0,3.5c0,0.276 0.224,0.5 0.5,0.5l3,0c0.276,0 0.5,-0.224 0.5,-0.5l0,-3.5l2,0l0,3.5c0,0.276 0.224,0.5 0.5,0.5l3,0c0.276,0 0.5,-0.224 0.5,-0.5l0,-3.5l0.5,0c0.276,0 0.5,-0.224 0.5,-0.5l0,-2c0,-0.276 -0.224,-0.5 -0.5,-0.5l-0.5,0l0,-4l0.5,0zm-12.096,0l1.596,0l0,4l-2.152,0l0.556,-4zm5.596,0l2,0l0,4l-2,0l0,-4zm-12,0l2.366,0l-0.556,4l-1.81,0l0,-4z"/>
 </g>
</svg>